{"title":"One Direction - Fireproof [Music Video][Album - Four][720p][AAC]","uid":11222115,"size":33728692,"categoryP":"video","categoryS":"music_videos","magnet":"?xt=urn:btih:64db806e515edda99998e46115ff714b7d985cba&amp;dn=One+Direction+-+Fireproof+%5BMusic+Video%5D%5BAlbum+-+Four%5D%5B720p%5D%5BAAC%5D&amp;tr=udp%3A%2F%2Ftracker.openbittorrent.com%3A80&amp;tr=udp%3A%2F%2Fopen.demonii.com%3A1337&amp;tr=udp%3A%2F%2Ftracker.coppersurfer.tk%3A6969&amp;tr=udp%3A%2F%2Fexodus.desync.com%3A6969","seeders":5,"leechers":0,"uploader":"JRRtv","files":1,"time":1413397695,"description":"General\nFormat : MPEG-4\nFile size : 32.2 MiB\nDuration : 3mn 1s\nOverall bit rate : 1 486 Kbps\n\nVideo\nFormat : AVC\nBit rate : 1 352 Kbps\nWidth : 1 280 pixels\nHeight : 720 pixels\nDisplay aspect ratio : 16:9\nFrame rate : 30.000 fps\nStream size : 29.3 MiB (91%)\n\nAudio\nFormat : AAC\nFormat profile : LC\nBit rate : 126 Kbps\nChannel(s) : 2 channels\nSampling rate : 44.1 KHz\nStream size : 2.72 MiB (8%)\n\nSubtitles\nLanguage : English","torrent":{"xt":"urn:btih:64db806e515edda99998e46115ff714b7d985cba","amp;dn":"One+Direction+-+Fireproof+%5BMusic+Video%5D%5BAlbum+-+Four%5D%5B720p%5D%5BAAC%5D","amp;tr":["udp%3A%2F%2Ftracker.openbittorrent.com%3A80","udp%3A%2F%2Fopen.demonii.com%3A1337","udp%3A%2F%2Ftracker.coppersurfer.tk%3A6969","udp%3A%2F%2Fexodus.desync.com%3A6969"],"infoHash":"64db806e515edda99998e46115ff714b7d985cba","infoHashBuffer":{"type":"Buffer","data":[100,219,128,110,81,94,221,169,153,152,228,97,21,255,113,75,125,152,92,186]},"announce":[],"urlList":[]}}